<svg width="24" height="20" viewBox="0 0 24 20" fill="none" xmlns="http://www.w3.org/2000/svg">
<path d="M20.8867 5.39931C20.9003 5.59619 20.9003 5.79306 20.9003 5.99175C20.9003 12.0459 16.2914 19.0281 7.8639 19.0281V19.0245C5.37439 19.0281 2.93659 18.315 0.84082 16.9705C1.20282 17.014 1.56663 17.0358 1.93134 17.0367C3.99445 17.0385 5.99858 16.3463 7.62167 15.0716C5.66108 15.0344 3.94183 13.7561 3.34122 11.8898C4.02802 12.0223 4.73568 11.9951 5.40977 11.8109C3.27227 11.3791 1.73447 9.50103 1.73447 7.31998C1.73447 7.30002 1.73447 7.28097 1.73447 7.26191C2.37136 7.61665 3.08447 7.81353 3.81391 7.8353C1.8007 6.48984 1.18013 3.81161 2.39586 1.71766C4.72207 4.58006 8.15423 6.32018 11.8386 6.50435C11.4693 4.91302 11.9738 3.24548 13.1641 2.12683C15.0095 0.392155 17.9118 0.481066 19.6465 2.32552C20.6726 2.1232 21.656 1.74669 22.556 1.21322C22.214 2.27381 21.4982 3.17472 20.5419 3.7472C21.4501 3.64014 22.3374 3.39699 23.173 3.02592C22.5579 3.9477 21.7831 4.75062 20.8867 5.39931Z" fill="white"/>
</svg>
